<svg width="28" height="28" viewBox="0 0 28 28" fill="none" xmlns="http://www.w3.org/2000/svg">
<g clip-path="url(#clip0)">
<path d="M7.16839 12.8856C7.62928 12.8856 8.00291 12.5081 8.00291 12.0424C8.00291 11.5767 7.62928 11.1992 7.16839 11.1992C6.70749 11.1992 6.33386 11.5767 6.33386 12.0424C6.33386 12.5081 6.70749 12.8856 7.16839 12.8856Z" fill="white"/>
<path d="M15.4155 12.9188C15.9126 12.9188 16.3155 12.5116 16.3155 12.0094C16.3155 11.5072 15.9126 11.1001 15.4155 11.1001C14.9185 11.1001 14.5156 11.5072 14.5156 12.0094C14.5156 12.5116 14.9185 12.9188 15.4155 12.9188Z" fill="white"/>
<path d="M22.8934 2.80029H5.10662C3.32303 2.80029 1.8667 4.27177 1.8667 6.07391V16.738C1.8667 18.5566 3.32303 20.0116 5.10662 20.0116H11.3901L13.5337 25.0873C13.5337 25.0873 13.6809 25.5338 14.0409 25.5338C14.4009 25.5338 14.5482 25.0873 14.5482 25.0873L16.6918 20.0116H22.9098C24.7098 20.0116 26.1497 18.5401 26.1497 16.738V6.07391C26.1334 4.27177 24.6934 2.80029 22.8934 2.80029ZM9.49196 12.2243C9.4756 14.1753 7.49565 14.2249 7.49565 14.2249C6.71021 14.2249 6.28477 13.7124 6.28477 13.7124V14.0596H4.82844V8.00832C4.91026 8.02486 6.28477 8.00832 6.28477 8.00832V10.323C6.6284 9.7278 7.61019 9.74433 7.61019 9.74433C9.75377 9.94273 9.49196 12.2243 9.49196 12.2243ZM12.0446 9.9262V14.0761H10.621V9.9758C10.621 9.41366 9.93377 9.26486 9.93377 9.26486V7.80992C12.2083 7.90912 12.0446 9.9262 12.0446 9.9262ZM15.4155 14.2249C14.1064 14.2249 13.0264 13.2329 13.0264 12.0094C13.0264 10.7859 14.09 9.79393 15.4155 9.79393C16.7245 9.79393 17.8045 10.7859 17.8045 12.0094C17.8045 13.2329 16.7409 14.2249 15.4155 14.2249ZM23.2043 14.2249C23.2043 14.2249 23.2207 16.3246 21.1099 16.3246H20.4717V14.9689H20.8644C20.8644 14.9689 21.748 15.0516 21.748 13.6628C21.748 13.6628 21.568 14.2249 20.3244 14.2249C20.3244 14.2249 18.5572 14.0926 18.5572 12.3566V11.6953C18.5572 11.6953 18.5899 9.89313 20.5371 9.74433C20.5371 9.74433 21.3062 9.66166 21.7807 10.3065V9.86006H23.2207V14.2249H23.2043Z" fill="white"/>
<path d="M20.9462 12.9021C21.4342 12.9021 21.8298 12.5023 21.8298 12.0093C21.8298 11.5162 21.4342 11.1165 20.9462 11.1165C20.4582 11.1165 20.0626 11.5162 20.0626 12.0093C20.0626 12.5023 20.4582 12.9021 20.9462 12.9021Z" fill="white"/>
</g>
<defs>
<clipPath id="clip0">
<rect width="24.2667" height="22.75" fill="white" transform="translate(1.8667 2.80029)"/>
</clipPath>
</defs>
</svg>
