<svg width="28" height="28" viewBox="0 0 28 28" fill="none" xmlns="http://www.w3.org/2000/svg">
<path d="M13.9956 4.98175C16.9333 4.98175 17.2782 4.99484 18.4393 5.04722C19.5131 5.09524 20.0937 5.27421 20.4821 5.42698C20.9972 5.62778 21.3639 5.86349 21.748 6.24762C22.1321 6.63174 22.3722 6.99841 22.5687 7.51349C22.7171 7.90198 22.9004 8.48254 22.9484 9.55635C23.0008 10.7175 23.0139 11.0623 23.0139 14C23.0139 16.9377 23.0008 17.2825 22.9484 18.4436C22.9004 19.5175 22.7214 20.098 22.5687 20.4865C22.3679 21.0016 22.1321 21.3682 21.748 21.7524C21.3639 22.1365 20.9972 22.3766 20.4821 22.573C20.0937 22.7214 19.5131 22.9048 18.4393 22.9528C17.2782 23.0052 16.9333 23.0182 13.9956 23.0182C11.0579 23.0182 10.7131 23.0052 9.55198 22.9528C8.47818 22.9048 7.89762 22.7258 7.50913 22.573C6.99405 22.3722 6.62738 22.1365 6.24325 21.7524C5.85913 21.3682 5.61905 21.0016 5.42262 20.4865C5.27421 20.098 5.09087 19.5175 5.04286 18.4436C4.99048 17.2825 4.97738 16.9377 4.97738 14C4.97738 11.0623 4.99048 10.7175 5.04286 9.55635C5.09087 8.48254 5.26984 7.90198 5.42262 7.51349C5.62341 6.99841 5.85913 6.63174 6.24325 6.24762C6.62738 5.86349 6.99405 5.62341 7.50913 5.42698C7.89762 5.27857 8.47818 5.09524 9.55198 5.04722C10.7131 4.99048 11.0623 4.98175 13.9956 4.98175ZM13.9956 3C11.0099 3 10.6345 3.0131 9.46032 3.06548C8.29048 3.11786 7.49167 3.30556 6.79325 3.57619C6.06865 3.85556 5.45754 4.23532 4.84643 4.84643C4.23532 5.45754 3.85992 6.07301 3.57619 6.79325C3.30556 7.49166 3.11786 8.29047 3.06548 9.46468C3.0131 10.6345 3 11.0099 3 13.9956C3 16.9813 3.0131 17.3567 3.06548 18.5309C3.11786 19.7008 3.30556 20.4996 3.57619 21.2024C3.85556 21.927 4.23532 22.5381 4.84643 23.1492C5.45754 23.7603 6.07302 24.1357 6.79325 24.4194C7.49167 24.6901 8.29048 24.8778 9.46468 24.9301C10.6389 24.9825 11.0099 24.9956 14 24.9956C16.9901 24.9956 17.3611 24.9825 18.5353 24.9301C19.7052 24.8778 20.504 24.6901 21.2067 24.4194C21.9314 24.1401 22.5425 23.7603 23.1536 23.1492C23.7647 22.5381 24.1401 21.9226 24.4238 21.2024C24.6944 20.504 24.8821 19.7052 24.9345 18.5309C24.9869 17.3567 25 16.9857 25 13.9956C25 11.0056 24.9869 10.6345 24.9345 9.46031C24.8821 8.29047 24.6944 7.49166 24.4238 6.78889C24.1444 6.06428 23.7647 5.45317 23.1536 4.84206C22.5425 4.23095 21.927 3.85556 21.2067 3.57183C20.5083 3.30119 19.7095 3.11349 18.5353 3.06111C17.3567 3.0131 16.9813 3 13.9956 3Z" fill="white"/>
<path d="M13.9955 8.35181C10.8788 8.35181 8.34705 10.8792 8.34705 14.0002C8.34705 17.1212 10.8744 19.6486 13.9955 19.6486C17.1165 19.6486 19.6439 17.1212 19.6439 14.0002C19.6439 10.8792 17.1165 8.35181 13.9955 8.35181ZM13.9955 17.6625C11.9701 17.6625 10.3288 16.0212 10.3288 13.9959C10.3288 11.9705 11.9701 10.3292 13.9955 10.3292C16.0209 10.3292 17.6621 11.9705 17.6621 13.9959C17.6621 16.0212 16.0209 17.6625 13.9955 17.6625Z" fill="white"/>
<path d="M19.8668 9.4429C20.5948 9.4429 21.185 8.8527 21.185 8.12465C21.185 7.3966 20.5948 6.8064 19.8668 6.8064C19.1387 6.8064 18.5485 7.3966 18.5485 8.12465C18.5485 8.8527 19.1387 9.4429 19.8668 9.4429Z" fill="white"/>
</svg>
